{
  "source": "C:\\Users\\Peter\\Desktop\\stuff\\MIUN\\quantitative_research\\video_compression\\videos\\HEVC_CLASS_B\\Cactus_1920x1080_50.y4m",
  "output": "C:\\Users\\Peter\\Desktop\\stuff\\MIUN\\quantitative_research\\video_compression\\compressed_videos\\HEVC_CLASS_B\\h264\\8\\Cactus_1920x1080_50_h264.mp4",
  "codec": "h264",
  "ok": "Input #0, yuv4mpegpipe, from 'C:\\Users\\Peter\\Desktop\\stuff\\MIUN\\quantitative_research\\video_compression\\videos\\HEVC_CLASS_B\\Cactus_1920x1080_50.y4m':\n  Duration: 00:00:10.00, start: 0.000000, bitrate: 1244162 kb/s\n  Stream #0:0: Video: rawvideo (I420 / 0x30323449), yuv420p(progressive), 1920x1080, 50 fps, 50 tbr, 50 tbn\n[out#0/mp4 @ 000001fb5336a140] Codec AVOption b:a (set bitrate (in bits/s)) has not been used for any stream. The most likely reason is either wrong type (e.g. a video option with no video streams) or that it is a private option of some decoder which was not actually used for any stream.\nStream mapping:\n  Stream #0:0 -> #0:0 (rawvideo (native) -> h264 (libx264))\nPress [q] to stop, [?] for help\n[libx264 @ 000001fb5336c900] using cpu capabilities: MMX2 SSE2Fast SSSE3 SSE4.2 AVX FMA3 BMI2 AVX2\n[libx264 @ 000001fb5336c900] profile High, level 5.0, 4:2:0, 8-bit\n[libx264 @ 000001fb5336c900] 264 - core 165 r3222 b35605a - H.264/MPEG-4 AVC codec - Copyleft 2003-2025 - http://www.videolan.org/x264.html - options: cabac=1 ref=5 deblock=1:0:0 analyse=0x3:0x113 me=hex subme=8 psy=1 psy_rd=1.00:0.00 mixed_ref=1 me_range=16 chroma_me=1 trellis=2 8x8dct=1 cqm=0 deadzone=21,11 fast_pskip=1 chroma_qp_offset=-2 threads=18 lookahead_threads=3 sliced_threads=0 nr=0 decimate=1 interlaced=0 bluray_compat=0 constrained_intra=0 bframes=3 b_pyramid=2 b_adapt=1 b_bias=0 direct=3 weightb=1 open_gop=0 weightp=2 keyint=250 keyint_min=25 scenecut=40 intra_refresh=0 rc_lookahead=50 rc=cbr mbtree=1 bitrate=8000 ratetol=1.0 qcomp=0.60 qpmin=0 qpmax=69 qpstep=4 vbv_maxrate=8000 vbv_bufsize=8000 nal_hrd=none filler=0 ip_ratio=1.40 aq=1:1.00\nOutput #0, mp4, to 'C:\\Users\\Peter\\Desktop\\stuff\\MIUN\\quantitative_research\\video_compression\\compressed_videos\\HEVC_CLASS_B\\h264\\8\\Cactus_1920x1080_50_h264.mp4':\n  Metadata:\n    encoder         : Lavf62.3.100\n  Stream #0:0: Video: h264 (avc1 / 0x31637661), yuv420p(tv, progressive), 1920x1080, q=2-31, 8000 kb/s, 50 fps, 12800 tbn\n    Metadata:\n      encoder         : Lavc62.11.100 libx264\n    Side data:\n      cpb: bitrate max/min/avg: 8000000/0/8000000 buffer size: 8000000 vbv_delay: N/A\nframe=    0 fps=0.0 q=0.0 size=       0KiB time=N/A bitrate=N/A speed=N/A elapsed=0:00:00.52    \nframe=    0 fps=0.0 q=0.0 size=       0KiB time=N/A bitrate=N/A speed=N/A elapsed=0:00:01.09    \nframe=   18 fps= 11 q=31.0 size=     256KiB time=00:00:00.32 bitrate=6554.8kbits/s speed=0.188x elapsed=0:00:01.70    \nframe=   37 fps= 16 q=32.0 size=     512KiB time=00:00:00.70 bitrate=5992.4kbits/s speed=0.296x elapsed=0:00:02.36    \nframe=   49 fps= 17 q=31.0 size=     512KiB time=00:00:00.94 bitrate=4462.4kbits/s speed=0.321x elapsed=0:00:02.92    \nframe=   69 fps= 20 q=31.0 size=    1024KiB time=00:00:01.28 bitrate=6553.9kbits/s speed=0.367x elapsed=0:00:03.48    \nframe=   85 fps= 21 q=31.0 size=    1280KiB time=00:00:01.66 bitrate=6317.0kbits/s speed=0.409x elapsed=0:00:04.05    \nframe=  105 fps= 22 q=31.0 size=    1536KiB time=00:00:01.94 bitrate=6486.2kbits/s speed=0.412x elapsed=0:00:04.70    \nframe=  117 fps= 22 q=31.0 size=    1792KiB time=00:00:02.30 bitrate=6382.8kbits/s speed=0.432x elapsed=0:00:05.31    \nframe=  137 fps= 23 q=31.0 size=    2304KiB time=00:00:02.62 bitrate=7204.1kbits/s speed=0.447x elapsed=0:00:05.86    \nframe=  157 fps= 24 q=31.0 size=    2560KiB time=00:00:03.08 bitrate=6809.1kbits/s speed=0.477x elapsed=0:00:06.46    \nframe=  177 fps= 25 q=30.0 size=    2816KiB time=00:00:03.50 bitrate=6591.2kbits/s speed=0.492x elapsed=0:00:07.11    \nframe=  193 fps= 25 q=31.0 size=    3072KiB time=00:00:03.82 bitrate=6588.0kbits/s speed=0.494x elapsed=0:00:07.73    \nframe=  209 fps= 25 q=31.0 size=    3328KiB time=00:00:04.06 bitrate=6715.1kbits/s speed=0.485x elapsed=0:00:08.36    \nframe=  226 fps= 25 q=31.0 size=    3840KiB time=00:00:04.46 bitrate=7053.3kbits/s speed=0.497x elapsed=0:00:08.97    \nframe=  242 fps= 25 q=31.0 size=    4096KiB time=00:00:04.70 bitrate=7139.3kbits/s speed=0.494x elapsed=0:00:09.50    \nframe=  250 fps= 25 q=31.0 size=    4096KiB time=00:00:04.96 bitrate=6765.1kbits/s speed=0.489x elapsed=0:00:10.14    \nframe=  271 fps= 25 q=31.0 size=    4864KiB time=00:00:05.38 bitrate=7406.4kbits/s speed=0.504x elapsed=0:00:10.68    \nframe=  283 fps= 25 q=31.0 size=    5120KiB time=00:00:05.60 bitrate=7489.9kbits/s speed=0.499x elapsed=0:00:11.21    \nframe=  298 fps= 25 q=31.0 size=    5376KiB time=00:00:05.86 bitrate=7515.5kbits/s speed=0.498x elapsed=0:00:11.76    \nframe=  311 fps= 25 q=31.0 size=    5632KiB time=00:00:06.18 bitrate=7465.7kbits/s speed=0.501x elapsed=0:00:12.33    \nframe=  331 fps= 26 q=31.0 size=    5888KiB time=00:00:06.58 bitrate=7330.5kbits/s speed=0.511x elapsed=0:00:12.88    \nframe=  347 fps= 26 q=31.0 size=    6144KiB time=00:00:06.82 bitrate=7380.1kbits/s speed=0.504x elapsed=0:00:13.53    \nframe=  364 fps= 26 q=31.0 size=    6400KiB time=00:00:07.22 bitrate=7261.7kbits/s speed=0.51x elapsed=0:00:14.14    \nframe=  379 fps= 26 q=31.0 size=    6656KiB time=00:00:07.54 bitrate=7231.6kbits/s speed=0.512x elapsed=0:00:14.73    \nframe=  399 fps= 26 q=31.0 size=    7168KiB time=00:00:07.94 bitrate=7395.5kbits/s speed=0.519x elapsed=0:00:15.28    \nframe=  415 fps= 26 q=31.0 size=    7424KiB time=00:00:08.26 bitrate=7362.9kbits/s speed=0.52x elapsed=0:00:15.88    \nframe=  427 fps= 26 q=31.0 size=    7680KiB time=00:00:08.50 bitrate=7401.8kbits/s speed=0.518x elapsed=0:00:16.41    \nframe=  447 fps= 26 q=31.0 size=    7936KiB time=00:00:08.90 bitrate=7304.7kbits/s speed=0.525x elapsed=0:00:16.95    \nframe=  463 fps= 26 q=30.0 size=    8192KiB time=00:00:09.22 bitrate=7278.7kbits/s speed=0.527x elapsed=0:00:17.50    \nframe=  479 fps= 26 q=27.0 size=    8704KiB time=00:00:09.46 bitrate=7537.4kbits/s speed=0.523x elapsed=0:00:18.08    \nframe=  500 fps= 27 q=-1.0 size=    8960KiB time=00:00:09.94 bitrate=7384.4kbits/s speed=0.533x elapsed=0:00:18.65    \n[mp4 @ 000001fb5336a280] Starting second pass: moving the moov atom to the beginning of the file\n[out#0/mp4 @ 000001fb5336a140] video:9078KiB audio:0KiB subtitle:0KiB other streams:0KiB global headers:0KiB muxing overhead: 0.075116%\nframe=  500 fps= 27 q=-1.0 Lsize=    9085KiB time=00:00:09.96 bitrate=7472.5kbits/s speed=0.533x elapsed=0:00:18.69    \n[libx264 @ 000001fb5336c900] frame I:2     Avg QP:26.44  size:211306\n[libx264 @ 000001fb5336c900] frame P:126   Avg QP:28.08  size: 44410\n[libx264 @ 000001fb5336c900] frame B:372   Avg QP:32.70  size:  8810\n[libx264 @ 000001fb5336c900] consecutive B-frames:  0.8%  0.0%  0.0% 99.2%\n[libx264 @ 000001fb5336c900] mb I  I16..4: 11.4% 69.4% 19.2%\n[libx264 @ 000001fb5336c900] mb P  I16..4:  0.4%  4.9%  0.6%  P16..4: 36.8% 13.4%  9.2%  0.0%  0.0%    skip:34.7%\n[libx264 @ 000001fb5336c900] mb B  I16..4:  0.0%  0.4%  0.0%  B16..8: 27.5%  3.4%  0.9%  direct: 2.0%  skip:65.6%  L0:38.6% L1:51.5% BI: 9.8%\n[libx264 @ 000001fb5336c900] 8x8 transform intra:80.0% inter:72.9%\n[libx264 @ 000001fb5336c900] direct mvs  spatial:97.3% temporal:2.7%\n[libx264 @ 000001fb5336c900] coded y,uvDC,uvAC intra: 77.2% 74.9% 41.6% inter: 10.7% 9.7% 1.0%\n[libx264 @ 000001fb5336c900] i16 v,h,dc,p: 16% 22%  2% 60%\n[libx264 @ 000001fb5336c900] i8 v,h,dc,ddl,ddr,vr,hd,vl,hu:  8%  5%  3% 12% 19% 15% 15% 13% 10%\n[libx264 @ 000001fb5336c900] i4 v,h,dc,ddl,ddr,vr,hd,vl,hu:  9%  6%  3% 12% 19% 16% 13% 11% 11%\n[libx264 @ 000001fb5336c900] i8c dc,h,v,p: 37% 20% 19% 24%\n[libx264 @ 000001fb5336c900] Weighted P-Frames: Y:0.0% UV:0.0%\n[libx264 @ 000001fb5336c900] ref P L0: 53.5% 19.1% 15.5%  4.9%  7.0%\n[libx264 @ 000001fb5336c900] ref B L0: 89.3%  6.8%  2.8%  1.1%\n[libx264 @ 000001fb5336c900] ref B L1: 97.6%  2.4%\n[libx264 @ 000001fb5336c900] kb/s:7436.44\n",
  "seconds": 18.875859260559082,
  "probe_out": {}
}